<svg width="135" height="64" viewBox="0 0 135 64" fill="none" xmlns="http://www.w3.org/2000/svg">
<path d="M40.5 0.5V20.5H52.5V10.5H120.5C122 10.5 122.7 10.9 123.5 12.5V22.5C123 24 122.5 25 120.5 25.5H67.5V63.5H79.5V35.5H124.5C129 34 133 32.5 134.5 24.5V7.5C133.5 4.5 131 1 124.5 0.5H40.5Z" fill="black"/>
<path d="M8.5 0.5H34.5V12.5H17.5C16.3954 12.5 15.5 13.3954 15.5 14.5V23.5C15.5 24.6046 16.3954 25.5 17.5 25.5H54.5C58.5 25.5 62.5 28.5 62.5 32.5C62.6667 36.3333 62.5 42.5 62.5 49.5C62.5 56.5 61.5 63.5 53.5 63.5H0.5V49.5H48.5C49.5 49.5 50.5 48.5 50.5 47.5V39.5C50.5 38.5 49.5 37.5 48.5 37.5H8.5C4.5 37.5 0.5 32.5 0.5 27.5V8.5C0.5 3.5 4.5 0.5 8.5 0.5Z" fill="#3A47B0" stroke="#3A47B0"/>
</svg>
